PathFileType	4	(X/Y/Z)	RBDS002\RBDS002runT45.trc
DataRate	CameraRate	NumFrames	NumMarkers	Units	OrigDataRate	OrigDataStartFrame	OrigNumFrames
150.000000	150.000000	5	33	mm	150.000000	3937	4500
Frame#	Time	L.ASIS			L.Heel.Bottom			L.Heel.Lateral			L.Heel.Top			L.Iliac.Crest			L.MT1			L.MT5			L.PSIS			L.Shank.Bottom.Lateral			L.Shank.Bottom.Medial			L.Shank.Top.Lateral			L.Shank.Top.Medial			L.Thigh.Bottom.Lateral			L.Thigh.Bottom.Medial			L.Thigh.Top.Lateral			L.Thigh.Top.Medial			R.ASIS			R.ASY			R.Heel.Bottom			R.Heel.Lateral			R.Heel.Top			R.Iliac.Crest			R.MT1			R.MT5			R.PSIS			R.Shank.Bottom.Lateral			R.Shank.Bottom.Medial			R.Shank.Top.Lateral			R.Shank.Top.Medial			R.Thigh.Bottom.Lateral			R.Thigh.Bottom.Medial			R.Thigh.Top.Lateral			R.Thigh.Top.Medial			
		X1	Y1	Z1	X2	Y2	Z2	X3	Y3	Z3	X4	Y4	Z4	X5	Y5	Z5	X6	Y6	Z6	X7	Y7	Z7	X8	Y8	Z8	X9	Y9	Z9	X10	Y10	Z10	X11	Y11	Z11	X12	Y12	Z12	X13	Y13	Z13	X14	Y14	Z14	X15	Y15	Z15	X16	Y16	Z16	X17	Y17	Z17	X18	Y18	Z18	X19	Y19	Z19	X20	Y20	Z20	X21	Y21	Z21	X22	Y22	Z22	X23	Y23	Z23	X24	Y24	Z24	X25	Y25	Z25	X26	Y26	Z26	X27	Y27	Z27	X28	Y28	Z28	X29	Y29	Z29	X30	Y30	Z30	X31	Y31	Z31	X32	Y32	Z32	X33	Y33	Z33	

3938	26.24666666666667	2370.993426238478	991.0240614700024	909.6222834604886	1716.188177624041	185.9638048858793	1018.074040663699	1734.260918507596	168.6963031040219	967.5716929247112	1753.848386813964	214.8237764747485	1002.58179729388	2306.530286631802	1085.942431780116	861.9201642146355	1896.462121164482	50.67877212053688	1032.551638460003	1837.021709182416	55.91987112209652	927.7151007115211	2196.583673541451	1050.496560674686	973.4507765553113	1845.749675144918	245.0282140753889	933.119263813844	1819.635062649858	270.7433454595612	968.8458527083097	1884.998186774364	311.7368841815379	909.0891915860067	1860.101121930154	341.4428960816512	945.6968879588801	2110.530089306218	602.588976567861	870.2876759393597	2063.345687361427	623.0538299129912	923.6272692436887	2135.499051796435	709.2129857215848	856.7250963082245	2093.285668837712	727.6722420150886	907.5794800757184	2382.771298359552	1006.663377274443	1118.576477272302	2435.343687717341	205.0952457091023	1087.959207766934	2252.084443735105	278.5694252492117	1063.931875188833	2276.818815584294	279.0867552797772	1104.670612572668	2294.18733970737	309.374846083342	1062.049375764043	2292.735878074117	1084.568796193947	1174.271183568858	2443.222981897923	135.1636360946609	1054.059379443877	2406.756356192175	162.1061864558467	1156.247346049529	2194.545235713832	1048.08794018663	1064.077897796884	2388.970940758972	351.0929418813329	1124.456168393746	2356.292300275903	374.9115580564639	1088.038301044313	2424.878114698123	423.3394435827973	1136.275263904273	2392.736769722464	445.4318589913818	1099.189817027051	2531.173422921436	678.9087092514567	1148.200105636149	2491.314640713546	649.5071319782683	1093.09341827683	2444.196467353398	741.6962172242752	1175.994770924573	2405.419758746173	711.2353969750556	1126.205532323502	
3939	26.25333333333333	2373.965518075003	992.3444209263376	910.8651752929384	1703.995395912182	203.9155358748723	1016.723766209507	1719.717265825037	184.2776000076797	966.2837650846827	1743.568779499209	229.3044000948088	1000.028139182797	2316.374223763344	1088.27795953676	861.8751567249309	1872.554665299943	53.53861028006197	1030.922245672815	1812.273719693519	61.48606361603258	927.2811924439062	2199.926938608301	1055.180747991187	970.5954936856175	1830.946492107164	255.5573108643424	930.1468830184315	1805.712969713171	280.4303091645731	967.1903942637057	1869.987305398677	322.7658821016404	907.0543637561938	1845.730985024416	351.6699124192838	944.7903904654796	2099.59154197261	613.0410258741953	870.754573163355	2053.771762345772	635.6750550326535	924.5133449724653	2129.352711734862	718.5355845094383	857.1603662765957	2088.75096375742	738.7726805967953	908.6906402059673	2384.252857920205	1012.811279173193	1118.805350942143	2471.784869128052	197.1340447284201	1086.654680448331	2283.535992731265	255.162686534857	1063.325295801936	2308.206861756543	257.6177178607348	1103.992375690449	2322.799069743254	289.2077203144474	1061.354181513469	2293.405292425713	1091.260102064308	1173.896089522576	2485.458374435263	128.3534077388753	1052.779108841969	2447.231696383148	151.9467716439264	1154.968793057853	2196.495623366849	1053.370022943794	1062.196102593031	2413.391668366448	338.8278066457043	1123.527237075974	2378.86277860991	359.8448570814517	1087.037676441522	2442.996132166446	413.8640568317609	1135.241808240919	2409.192689429178	433.215188424831	1098.093467817535	2532.74271676508	686.104066329742	1146.815442388647	2491.270819635077	655.270528164027	1094.141380756088	2446.431407855861	749.5913741666146	1175.160305941641	2406.597100169486	718.045087613785	1127.255025398101	
3940	26.26	2376.676921509552	993.6343215808147	912.0501204449995	1693.144553678023	222.2380084154073	1015.196602956365	1706.476900769283	200.4508202350115	964.8438150639751	1734.433165768756	244.1144283342526	997.4440152849726	2325.842224549814	1090.20871675413	861.9425430544093	1849.501004834138	57.82649327343752	1029.037760714297	1788.648726378465	68.39526809350589	926.6961896203683	2203.148818871799	1059.858737691462	967.9645983543667	1817.337722532773	266.324827378563	927.2101602304959	1792.959912074079	290.4570380784834	965.4497647813524	1856.393755959746	333.8751461515853	904.9968588509261	1832.806019308412	362.0853809528301	943.7693036729059	2089.831163003601	623.1369811144166	871.1563342985941	2045.427240028996	647.5110741936372	925.4293459821694	2123.822671705327	727.5110142157536	857.7792511505075	2084.910812636101	749.1317492107007	910.1075379121887	2385.628587743453	1018.550356230987	1118.974564250018	2508.078164913778	191.1515133851393	1085.052901677065	2316.384679605927	232.8477213107082	1062.208436256343	2340.756653856112	237.2257763615347	1102.865032434708	2352.373003951313	269.9151724528023	1060.294290408126	2293.995356541099	1097.744336918043	1173.540073352288	2527.561817050394	124.2339156716105	1051.096274185407	2487.854597181004	144.0514525459147	1153.290180287361	2198.469426619827	1058.565112321297	1060.392091027508	2437.955274952911	327.3003801982746	1122.406976524439	2401.951660090329	345.465169011263	1085.737691241319	2461.12380684326	404.5396905264195	1134.13017310396	2426.05432862884	421.1098231610455	1096.798038124699	2533.488669728105	692.1988054772681	1145.658943281877	2490.256221914287	659.7327867335287	1095.85162256024	2448.060732925907	756.7594971205446	1174.305612850988	2406.963462639013	723.8855771318191	1128.772457874678	
3941	26.26666666666667	2379.065252822924	994.9474099690492	913.1226859161141	1683.190482042953	240.765861636835	1013.436295979013	1694.229098323875	217.1058754160271	963.2003916119752	1725.970455012692	259.1968486718841	994.8530086190256	2334.62776026954	1091.860143764864	862.1288479398952	1827.209847332521	63.71683165760921	1027.013325608434	1766.17462398625	76.76165450796007	925.9594921118407	2206.158104187817	1064.483524953007	965.5952277018915	1804.721732345967	277.3585009528865	924.4341787122993	1781.151208910908	300.9220872127292	963.6903602942145	1844.110934121956	345.0195102200348	903.0229733173735	1821.213012155567	372.7041483292813	942.6864355444526	2081.370733503001	632.6057555710127	871.5471824647773	2038.350312420743	658.2575887235703	926.3912740416032	2118.951356063501	735.9346777279719	858.6050977251274	2081.697736103681	758.5297636263641	911.7873269592824	2386.871225033558	1023.78638455156	1119.056210454807	2543.806959378075	187.2435561025009	1083.159321348282	2350.2605597245	211.8065495523788	1060.614962208395	2374.116011954451	218.0592589705206	1101.316137577205	2382.55318873615	251.6644923619606	1058.927319916989	2294.464623668841	1103.916516502334	1173.175170974267	2569.060681557866	122.9368585559242	1048.961094268808	2528.227415906985	138.5044779336416	1151.180183400664	2200.408506202747	1063.616809282836	1058.685671035303	2462.38281915973	316.6365971875394	1121.132859095105	2425.26995539714	331.9565999884755	1084.190172346428	2479.082844206543	395.4806569952091	1132.9956932178	2443.125981237569	409.2967407597318	1095.374038118094	2533.420035536185	697.0931489711747	1144.77735210531	2488.36150164435	662.8721652660515	1098.120994612734	2449.065663705721	763.0368194150062	1173.473297880588	2406.560444299961	728.6868088560791	1130.666897191919	
3942	26.27333333333333	2381.088031490156	996.3374737650146	914.0277636770409	1673.710462782844	259.3864434516295	1011.39383473322	1682.676152934545	234.1558312459472	961.3095594747081	1717.752123277495	274.5307908708809	992.2734869392293	2342.449100459264	1093.382628606765	862.4257407425412	1805.577010260005	71.32803447925217	1024.985326576168	1744.850289974735	86.65273811323073	925.0787519967254	2208.867577410514	1068.996576665017	963.5256699632347	1792.91515813513	288.70468444586	921.9243517359414	1770.088715434076	311.9326697659619	961.9724182325801	1833.030390085142	356.1795347457603	901.2246590303434	1810.840438193037	383.5557049170247	941.5912717530224	2074.328002503999	641.1960658347007	871.9707258974661	2032.593191404157	667.6650985881015	927.4110830732354	2114.805780568402	743.6115488770289	859.6254588085199	2079.082283481989	766.789264853754	913.6538240226457	2387.968684887313	1028.445176887273	1119.021661822395	2578.525372962555	185.4142029395379	1080.980948893575	2384.71580698962	192.2310135592158	1058.602873254199	2407.872702406583	200.2722381005597	1099.394689226036	2412.936543264204	234.6244258242934	1057.325784479592	2294.798631084257	1109.670177159038	1172.769420270446	2609.422928832165	124.4656337857579	1046.330717487712	2567.902719912597	135.3033942899374	1148.613572331046	2202.256531295975	1068.462705172239	1057.103712445781	2486.38577501195	306.9378892142117	1119.745795704302	2448.497895912512	319.4714102835657	1082.463206222922	2496.685943643386	386.7937947712423	1131.894174703169	2460.179984852435	397.9409270176307	1093.904529417924	2532.560255484845	700.6992206836578	1144.215851819407	2485.697459261531	664.7331720238636	1100.78784805515	2449.438605966682	768.2604576229832	1172.734189642692	2405.454506071657	732.4177295625125	1132.814806772312	
